Coordinates
version=1
nRows=11
nColumns=40
inDegrees=yes

Units are S.I. units (second, meters, Newtons, ...)
Angles are in degrees.

endheader
time	pelvis_tilt	pelvis_list	pelvis_rotation	pelvis_tx	pelvis_ty	pelvis_tz	hip_flexion_r	hip_adduction_r	hip_rotation_r	knee_angle_r	knee_angle_r_beta	ankle_angle_r	subtalar_angle_r	mtp_angle_r	hip_flexion_l	hip_adduction_l	hip_rotation_l	knee_angle_l	knee_angle_l_beta	ankle_angle_l	subtalar_angle_l	mtp_angle_l	lumbar_extension	lumbar_bending	lumbar_rotation	arm_flex_r	arm_add_r	arm_rot_r	elbow_flex_r	pro_sup_r	wrist_flex_r	wrist_dev_r	arm_flex_l	arm_add_l	arm_rot_l	elbow_flex_l	pro_sup_l	wrist_flex_l	wrist_dev_l
     17.63250000	     -5.44608017	     -4.75123528	      2.79505349	      0.97851962	      0.92445507	      0.46540544	      2.91726862	     -1.10004141	    -14.80866252	     27.63112084	     27.63112084	     16.27484962	      2.39886761	     -6.68322572	     26.30342509	     -4.81114311	     -2.62489734	     24.19024438	     24.19024438	      6.79257222	    -14.22438254	      4.42504382	     -8.25488371	      4.95801720	      3.70972945	     30.29171669	    -15.92165020	      3.97082575	    100.91668417	     44.71973044	      0.00000000	      0.00000000	     -7.74124961	     -7.87010715	     -4.91607769	     32.48983380	     45.23222371	      0.00000000	      0.00000000
     17.64457143	     -5.51264841	     -4.65102690	      2.67288648	      0.97846617	      0.92518879	      0.46292823	      4.33471893	     -1.82052129	    -14.23825496	     30.82876529	     30.82876529	     14.86751263	      0.96457488	     -8.63043353	     25.71062070	     -4.61837773	     -2.85361445	     24.01045207	     24.01045207	      7.27011071	    -14.03410826	      4.29400408	     -8.15890333	      4.86340205	      3.78587821	     28.70897007	    -16.11293858	      3.46001500	     98.76003363	     44.80166371	      0.00000000	      0.00000000	     -7.26847317	     -7.93335967	     -4.89601700	     33.29041263	     45.24685210	      0.00000000	      0.00000000
     17.65664286	     -5.37846606	     -4.61257429	      2.61429699	      0.97855687	      0.92601855	      0.46058688	      5.38383438	     -2.27988382	    -13.44780515	     33.38803000	     33.38803000	     10.93377853	     -2.26411042	    -16.67034963	     24.95867153	     -4.49349065	     -3.03267269	     23.93819832	     23.93819832	      7.81766927	    -13.86802709	      4.20754336	     -8.28238208	      4.87212264	      3.16956005	     27.68439077	    -15.00329591	      2.28137248	     95.05256190	     44.96825313	      0.00000000	      0.00000000	     -7.62305901	     -8.24187168	     -4.44455709	     35.56549196	     45.24557413	      0.00000000	      0.00000000
     17.66871429	     -5.32779700	     -4.47046767	      2.46216901	      0.97845884	      0.92648725	      0.45821084	      7.06351814	     -3.09652880	    -12.89414268	     37.18458921	     37.18458921	      9.32684174	     -3.69397617	    -17.44234518	     24.31717022	     -4.26603621	     -3.26992113	     23.91103905	     23.91103905	      8.26492814	    -13.82748687	      4.00025520	     -8.38872825	      4.80925178	      3.32998325	     25.88587856	    -15.52222454	      2.45202406	     93.47849028	     45.00687902	      0.00000000	      0.00000000	     -6.92047605	     -8.34586555	     -4.46693435	     36.17721976	     45.26830925	      0.00000000	      0.00000000
     17.68078571	     -5.24107433	     -4.33290207	      2.29854135	      0.97828176	      0.92679235	      0.45598034	      8.85717039	     -3.82428785	    -12.17978272	     41.08773333	     41.08773333	      7.29122328	     -5.58311684	    -18.07354599	     23.69578501	     -4.04622198	     -3.46082932	     23.97408310	     23.97408310	      8.71707903	    -13.89275623	      3.79975421	     -8.53313527	      4.72714569	      3.42952618	     24.15334655	    -15.76542201	      2.31761249	     91.45006698	     45.06947680	      0.00000000	      0.00000000	     -6.21532247	     -8.47461563	     -4.46420049	     36.96077410	     45.28714393	      0.00000000	      0.00000000
     17.69285714	     -5.16568970	     -4.45198000	      2.14869998	      0.97798823	      0.92700812	      0.45402606	     10.70154546	     -3.97352936	    -11.08613170	     44.70845166	     44.70845166	      4.21552419	     -9.01992261	    -19.77016441	     23.19126389	     -4.08026239	     -3.41556296	     24.16067049	     24.16067049	      9.17220544	    -14.09567193	      3.68754481	     -8.55345288	      4.94247310	      3.36643614	     22.93078266	    -15.21995552	      1.14562219	     87.22344727	     45.23764363	      0.00000000	      0.00000000	     -6.02318419	     -8.76415195	     -4.09947870	     38.81645170	     45.28265581	      0.00000000	      0.00000000
     17.70492857	     -5.08827180	     -4.31378189	      1.96349835	      0.97761633	      0.92701252	      0.45199243	     12.71162456	     -4.58943893	    -10.35715635	     48.58551560	     48.58551560	      1.41668464	    -11.28800122	    -20.44900615	     22.63453355	     -3.86081217	     -3.55318983	     24.29139149	     24.29139149	      9.69635710	    -14.18625167	      3.66519811	     -8.64936108	      4.88108241	      2.95941099	     21.83139437	    -14.63274859	      0.69976033	     83.70921293	     45.35581180	      0.00000000	      0.00000000	     -5.98389598	     -9.21980129	     -3.51920791	     40.67769745	     45.27562102	      0.00000000	      0.00000000
     17.71700000	     -5.00114772	     -4.26303573	      1.77342013	      0.97714966	      0.92693769	      0.45007180	     14.79542746	     -4.99763320	     -9.59344772	     52.40636392	     52.40636392	     -1.03547497	    -13.35988336	    -19.31461248	     22.15042261	     -3.72283041	     -3.57493172	     24.54376697	     24.54376697	     10.17424655	    -14.44990409	      3.58953280	     -8.77924030	      4.94299572	      3.13065084	     20.17800092	    -14.79545204	      0.40938687	     80.86163633	     45.44701658	      0.00000000	      0.00000000	     -5.21989981	     -9.40895436	     -3.32839540	     41.83284266	     45.29346147	      0.00000000	      0.00000000
     17.72907143	     -4.91189211	     -4.14455855	      1.55950548	      0.97661089	      0.92682335	      0.44822731	     16.98227686	     -5.46331732	     -8.89892982	     56.22928533	     56.22928533	     -2.66802059	    -14.49059505	    -15.86402255	     21.64663985	     -3.52671183	     -3.67754746	     24.78061376	     24.78061376	     10.80757966	    -14.59193382	      3.83739103	     -8.85845919	      4.91094872	      2.69746049	     19.33502639	    -14.04882489	     -0.26050789	     76.33311410	     45.58908043	      0.00000000	      0.00000000	     -5.12095448	    -10.00898568	     -2.38840815	     43.82333678	     45.30346393	      0.00000000	      0.00000000
     17.74114286	     -4.79639201	     -3.97684323	      1.32563253	      0.97603546	      0.92672817	      0.44647850	     19.02580050	     -5.95328466	     -8.30533992	     59.52226672	     59.52226672	     -4.86713582	    -15.95582814	    -14.66137861	     21.07920168	     -3.29342456	     -3.84514343	     24.93474695	     24.93474695	     11.26708094	    -14.78318644	      3.69929315	     -9.08007903	      4.86716337	      2.80554522	     17.47543374	    -14.22961622	     -0.27979146	     74.38316062	     45.64319176	      0.00000000	      0.00000000	     -4.13144143	    -10.18528143	     -2.42888711	     44.52440302	     45.33220341	      0.00000000	      0.00000000
     17.75321429	     -4.74479133	     -4.02900023	      1.08282980	      0.97534103	      0.92674924	      0.44502833	     21.25281151	     -6.01549053	     -7.67759166	     62.75293332	     62.75293332	     -5.14991503	    -16.31794705	     -8.44725625	     20.59827111	     -3.29899726	     -3.90518071	     25.09243548	     25.09243548	     11.84343555	    -14.89497855	      3.95068484	     -9.08508531	      5.02876563	      2.62622391	     17.03878574	    -13.23462816	     -1.99008174	     67.99537432	     45.88696092	      0.00000000	      0.00000000	     -3.64199840	    -10.69413475	     -1.42372367	     46.05079811	     45.31404794	      0.00000000	      0.00000000
